<svg version="1.1" id="Layer_1" xmlns="http://www.w3.org/2000/svg" xmlns:xlink="http://www.w3.org/1999/xlink" x="0px" y="0px"
	 width="100%" viewBox="0 0 976 976" enable-background="new 0 0 976 976" xml:space="preserve">
<path fill="#00ced1" opacity="1.000000" stroke="none" 
	d="
M304.157776,578.883179 
	C309.195862,589.472107 314.829498,599.287170 321.311157,608.607239 
	C322.766602,610.700012 323.892731,612.830933 323.877686,615.488892 
	C323.837128,622.654480 323.821960,629.821594 323.927521,636.986084 
	C323.980225,640.561890 322.512482,642.035828 318.857788,642.015869 
	C299.193146,641.908875 279.527649,641.920349 259.862610,641.963989 
	C257.048798,641.970215 255.312531,640.854492 253.828781,638.445801 
	C233.016449,604.660217 219.896561,568.178711 214.564117,528.816833 
	C206.602722,470.049316 216.752640,414.497833 243.593719,361.831268 
	C246.313202,356.495209 249.752213,351.521606 252.397141,346.153076 
	C254.708221,341.462189 258.150726,339.938751 263.166840,340.053955 
	C273.160614,340.283478 283.163727,340.105499 293.162994,340.096100 
	C308.995178,340.081238 324.829102,340.194031 340.658539,339.977936 
	C345.729950,339.908722 349.799927,341.246063 353.976501,344.289337 
	C413.224396,387.460724 472.604126,430.451080 531.947937,473.490814 
	C578.474731,507.234924 624.992798,540.991150 671.533020,574.716675 
	C673.103271,575.854553 674.491699,577.447815 677.521729,577.513794 
	C679.943420,571.486206 682.688904,565.298767 684.939270,558.936218 
	C693.324768,535.227844 698.607544,510.928680 697.652771,485.614502 
	C696.810730,463.292480 691.594849,441.855804 684.032349,420.912170 
	C678.122986,404.546509 670.572205,389.003723 661.117615,374.410736 
	C658.844299,370.901917 657.745728,367.353943 657.916504,363.160736 
	C658.160522,357.171143 658.060547,351.162811 657.950500,345.165375 
	C657.890198,341.882294 659.072083,340.213470 662.558533,340.213989 
	C682.554626,340.216858 702.551025,340.192322 722.546387,340.039459 
	C725.840759,340.014313 727.222046,342.004456 728.643677,344.336670 
	C743.833618,369.256073 755.241455,395.767487 762.125977,424.161041 
	C769.519531,454.654083 772.106873,485.560577 769.145142,516.810242 
	C765.025391,560.277649 751.580811,600.692261 728.746277,637.972290 
	C726.930481,640.936707 724.883606,642.040283 721.513062,642.027039 
	C693.348755,641.916260 665.183960,641.908203 637.019470,641.944519 
	C633.212341,641.949402 629.985718,641.011047 626.833252,638.699646 
	C570.404541,597.326355 513.896484,556.061218 457.433594,514.734497 
	C408.634003,479.016785 359.872253,443.247314 311.085815,407.511536 
	C305.309509,403.280396 303.686340,403.686707 300.857178,410.443420 
	C291.980530,431.642975 286.747833,453.648010 285.086395,476.652679 
	C282.952026,506.205353 287.138397,534.721680 297.177551,562.463501 
	C299.155884,567.930359 301.710114,573.188843 304.157776,578.883179 
z"/>
<path fill="#00ced1" opacity="1.000000" stroke="none" 
	d="
M340.045349,522.000000 
	C340.044769,497.949463 340.044769,474.398956 340.044769,451.118500 
	C342.786591,450.352692 343.860748,451.567047 345.027344,452.422699 
	C366.516388,468.184692 387.942108,484.033783 409.528229,499.661530 
	C412.738861,501.985962 413.303314,504.692841 413.299316,508.207672 
	C413.238953,561.030762 413.245667,613.853821 413.239227,666.676941 
	C413.235779,695.171448 413.247528,723.665894 413.228668,752.160400 
	C413.224304,758.774414 412.732239,759.133911 406.334534,757.066467 
	C384.690033,750.071838 364.111969,740.743530 344.669983,728.907043 
	C341.759552,727.135193 340.400177,725.321716 340.359955,721.445068 
	C339.671783,655.130127 340.277618,588.814331 340.045349,522.000000 
z"/>
<path fill="#00ced1" opacity="1.000000" stroke="none" 
	d="
M641.419617,354.000183 
	C641.419861,413.397827 641.419861,472.295502 641.419861,531.102295 
	C639.332764,531.853699 638.268555,530.561890 637.112732,529.724487 
	C615.801941,514.283569 594.540222,498.774628 573.178040,483.405334 
	C570.051575,481.155975 568.640625,478.700470 568.645874,474.715698 
	C568.753601,392.741791 568.726807,310.767700 568.739990,228.793671 
	C568.740173,227.322708 568.902893,225.851761 568.976868,224.599792 
	C570.630127,223.168991 572.024475,223.870255 573.444702,224.313812 
	C596.129700,231.398590 617.585266,241.152481 637.860962,253.573807 
	C640.996033,255.494385 641.421814,257.901917 641.429749,261.063080 
	C641.507629,291.875549 642.173584,322.687653 641.419617,354.000183 
z"/>
<path fill="#00ced1" opacity="1.000000" stroke="none" 
	d="
M340.035950,282.000000 
	C340.047180,274.508636 340.162628,267.515228 340.023834,260.526825 
	C339.957275,257.175171 341.112579,255.010956 344.070282,253.230698 
	C364.122009,241.161560 385.234497,231.475632 407.559387,224.443863 
	C412.701019,222.824387 413.219940,223.184372 413.223572,228.774017 
	C413.252319,272.886200 413.258179,316.998352 413.246063,361.110535 
	C413.245667,362.547455 413.641541,364.120026 412.150024,365.630341 
	C409.396515,365.197113 407.383545,363.096161 405.179688,361.512512 
	C385.450287,347.335236 365.849457,332.977386 346.020233,318.941925 
	C341.616821,315.825134 339.636902,312.449280 339.943237,306.963287 
	C340.397247,298.832489 340.044830,290.656647 340.035950,282.000000 
z"/>
<path fill="#00ced1" opacity="1.000000" stroke="none" 
	d="
M577.205078,756.415222 
	C574.449341,757.071411 572.248901,758.645020 569.168579,757.648010 
	C569.168579,711.192932 569.168579,664.665710 569.168579,618.188232 
	C571.100037,617.451721 572.183105,618.699402 573.346680,619.548584 
	C594.471313,634.965149 615.530090,650.472778 636.747437,665.760559 
	C640.252319,668.285828 641.503906,671.016418 641.510315,675.311218 
	C641.533142,690.632568 642.160889,705.948242 641.800110,721.280701 
	C641.718872,724.733948 640.674622,726.624084 637.734131,728.414734 
	C618.728638,739.987671 598.722412,749.342712 577.205078,756.415222 
z"/>
</svg>